<svg width="18" height="18" viewBox="0 0 18 18" fill="none" xmlns="http://www.w3.org/2000/svg">
<path d="M8.95985 4.34719C6.4164 4.34719 4.35594 6.40544 4.35594 8.94396C4.35594 11.4835 6.4164 13.5417 8.95985 13.5417C11.5013 13.5417 13.5638 11.4835 13.5638 8.94396C13.5638 6.40544 11.5013 4.34719 8.95985 4.34719ZM8.95985 11.9309C7.3077 11.9309 5.96826 10.5935 5.96826 8.94495C5.96826 7.29536 7.3077 5.95899 8.95985 5.95899C10.612 5.95899 11.9495 7.29536 11.9495 8.94495C11.9495 10.5935 10.612 11.9309 8.95985 11.9309Z" fill="#FF3AA4"/>
<path d="M13.747 5.25004C14.3399 5.25004 14.8206 4.77014 14.8206 4.17815C14.8206 3.58617 14.3399 3.10627 13.747 3.10627C13.1541 3.10627 12.6735 3.58617 12.6735 4.17815C12.6735 4.77014 13.1541 5.25004 13.747 5.25004Z" fill="#FF3AA4"/>
<path d="M17.4586 3.08837C16.9916 1.88623 16.0405 0.93566 14.8365 0.47131C14.1404 0.209803 13.4044 0.0696027 12.6595 0.0536935C11.7005 0.0119318 11.3968 0 8.96483 0C6.53292 0 6.22121 -1.00012e-07 5.27015 0.0536935C4.52723 0.0686083 3.79128 0.208808 3.09517 0.47131C1.89016 0.93566 0.939106 1.88623 0.473039 3.08837C0.211125 3.7844 0.0707069 4.51821 0.0557688 5.26197C0.0129463 6.21851 0 6.52178 0 8.95092C0 11.3791 -7.41982e-09 11.6883 0.0557688 12.6399C0.0707069 13.3836 0.211125 14.1174 0.473039 14.8145C0.940102 16.0156 1.89116 16.9662 3.09616 17.4315C3.78929 17.702 4.52524 17.8551 5.27214 17.879C6.23117 17.9207 6.53491 17.9336 8.96682 17.9336C11.3987 17.9336 11.7105 17.9336 12.6615 17.879C13.4054 17.864 14.1414 17.7229 14.8385 17.4623C16.0425 16.996 16.9935 16.0464 17.4606 14.8443C17.7225 14.1483 17.8629 13.4144 17.8779 12.6707C17.9207 11.7141 17.9336 11.4109 17.9336 8.98174C17.9336 6.5526 17.9336 6.24436 17.8779 5.29279C17.8649 4.53909 17.7255 3.79236 17.4586 3.08837ZM16.2456 12.5663C16.2387 13.139 16.1351 13.7068 15.9359 14.2447C15.6322 15.0272 15.0138 15.6457 14.231 15.946C13.6982 16.1439 13.1365 16.2473 12.5679 16.2552C11.6218 16.299 11.3549 16.3099 8.92898 16.3099C6.50105 16.3099 6.25308 16.3099 5.28907 16.2552C4.72242 16.2483 4.15876 16.1439 3.62696 15.946C2.84122 15.6467 2.2188 15.0282 1.91506 14.2447C1.71987 13.7137 1.61431 13.1519 1.60534 12.5852C1.56252 11.6406 1.55256 11.3741 1.55256 8.95191C1.55256 6.52874 1.55256 6.28115 1.60534 5.31765C1.61232 4.74492 1.71589 4.17815 1.91506 3.64022C2.2188 2.8557 2.84122 2.23823 3.62696 1.93794C4.15876 1.74106 4.72242 1.63666 5.28907 1.6287C6.23615 1.58595 6.50204 1.57402 8.92898 1.57402C11.3559 1.57402 11.6049 1.57402 12.5679 1.6287C13.1365 1.63566 13.6982 1.74007 14.231 1.93794C15.0138 2.23922 15.6322 2.85769 15.9359 3.64022C16.1311 4.17119 16.2367 4.73299 16.2456 5.29975C16.2885 6.24536 16.2994 6.51084 16.2994 8.93401C16.2994 11.3562 16.2994 11.6167 16.2566 12.5673H16.2456V12.5663Z" fill="#FF3AA4"/>
</svg>
