<svg width="18" height="18" viewBox="0 0 18 18" fill="none" xmlns="http://www.w3.org/2000/svg">
<path fill-rule="evenodd" clip-rule="evenodd" d="M15.3207 2.6062C13.6349 0.926455 11.3929 0.000985123 9.00433 0C4.08252 0 0.0768792 3.98636 0.0748995 8.88593C0.0742396 10.4522 0.485362 11.9811 1.2668 13.3287L0 17.9336L4.73363 16.6979C6.03793 17.406 7.50634 17.7791 9.0007 17.7795H9.00444C13.9257 17.7795 17.9318 13.7928 17.9336 8.89305C17.9346 6.51846 17.0067 4.28584 15.3207 2.6062ZM9.00433 16.2787H9.00125C7.66956 16.2782 6.36349 15.922 5.22383 15.2492L4.95294 15.089L2.14393 15.8224L2.89369 13.0968L2.71717 12.8173C1.97422 11.6413 1.58191 10.2821 1.58257 8.88648C1.58411 4.81409 4.91356 1.50089 9.0073 1.50089C10.9897 1.50155 12.8531 2.27082 14.2543 3.66696C15.6555 5.0631 16.4268 6.91886 16.4261 8.8925C16.4243 12.9652 13.0951 16.2787 9.00433 16.2787ZM13.0753 10.7468C12.8523 10.6356 11.7553 10.0986 11.5507 10.0244C11.3463 9.95031 11.1974 9.91342 11.0488 10.1356C10.9 10.3578 10.4725 10.858 10.3423 11.0061C10.2121 11.1543 10.0821 11.173 9.85891 11.0617C9.63575 10.9506 8.91689 10.7161 8.06462 9.95961C7.40141 9.37084 6.95367 8.6437 6.82344 8.4215C6.69344 8.19908 6.82234 8.0905 6.92133 7.96835C7.16286 7.66985 7.40471 7.35691 7.47906 7.20881C7.55352 7.06061 7.51624 6.9309 7.46037 6.8198C7.40471 6.7087 6.95851 5.61576 6.77263 5.17103C6.59138 4.73823 6.40759 4.79668 6.27055 4.7899C6.14055 4.78344 5.99174 4.78212 5.84293 4.78212C5.69423 4.78212 5.45249 4.83762 5.24792 5.06004C5.04345 5.28235 4.46713 5.81946 4.46713 6.9124C4.46713 8.00534 5.26661 9.06118 5.37814 9.20938C5.48966 9.35759 6.95147 11.6004 9.18954 12.5621C9.72187 12.7911 10.1374 12.9276 10.4615 13.0299C10.996 13.1989 11.4823 13.1751 11.8668 13.1179C12.2955 13.0541 13.1867 12.5807 13.3728 12.0621C13.5587 11.5434 13.5587 11.0989 13.5028 11.0061C13.4472 10.9135 13.2983 10.858 13.0753 10.7468Z" fill="#FF3AA4"/>
</svg>
